<svg width="22" height="22" viewBox="0 0 22 22" fill="none" xmlns="http://www.w3.org/2000/svg">
<path d="M11 22C12.5188 22 13.75 20.7688 13.75 19.25H8.25C8.25 20.7688 9.48122 22 11 22Z" fill="#F9690B"/>
<path d="M12.3683 1.51117C12.3727 1.46638 12.375 1.42095 12.375 1.375C12.375 0.615609 11.7594 0 11 0C10.2406 0 9.625 0.615609 9.625 1.375C9.625 1.42096 9.62725 1.46638 9.63166 1.51118C6.49028 2.14562 4.12503 4.92159 4.12503 8.25C4.12503 9.75921 3.4375 16.5 1.375 17.875H20.625C18.5625 16.5 17.875 9.75921 17.875 8.25C17.875 4.92157 15.5098 2.14558 12.3683 1.51117Z" fill="#F9690B"/>
</svg>
