<svg width="22" height="22" viewBox="0 0 22 22" fill="none" xmlns="http://www.w3.org/2000/svg">
<path d="M11 22C12.5188 22 13.75 20.7688 13.75 19.25H8.25C8.25 20.7688 9.48122 22 11 22Z" fill="#737373"/>
<path d="M11 2.63759L9.90386 2.85897C7.39135 3.3664 5.50003 5.58887 5.50003 8.25C5.50003 9.11326 5.31528 11.2712 4.86909 13.3955C4.64759 14.45 4.35124 15.548 3.95738 16.5H18.0426C17.6488 15.548 17.3524 14.45 17.1309 13.3955C16.6848 11.2712 16.5 9.11325 16.5 8.25C16.5 5.58885 14.6087 3.36637 12.0962 2.85896L11 2.63759ZM19.5515 16.5C19.8585 17.1152 20.2145 17.6014 20.625 17.875H1.375C1.78547 17.6014 2.14149 17.1152 2.44846 16.5C3.68393 14.0241 4.12503 9.45885 4.12503 8.25C4.12503 4.92159 6.49028 2.14562 9.63166 1.51118C9.62725 1.46638 9.625 1.42096 9.625 1.375C9.625 0.615609 10.2406 0 11 0C11.7594 0 12.375 0.615609 12.375 1.375C12.375 1.42095 12.3727 1.46638 12.3683 1.51117C15.5098 2.14558 17.875 4.92157 17.875 8.25C17.875 9.45885 18.3161 14.0241 19.5515 16.5Z" fill="#737373"/>
</svg>
