<svg width="43" height="43" viewBox="0 0 43 43" fill="none" xmlns="http://www.w3.org/2000/svg">
<circle cx="21.5" cy="21.5" r="21" stroke="#FF0F00"/>
<path d="M22.8965 9.81689C22.265 8.74235 20.7395 8.74235 20.1079 9.81689L10.3519 26.4162C9.70164 27.5225 10.4823 28.9301 11.7462 28.9301H31.2583C32.5221 28.9301 33.3028 27.5225 32.6525 26.4162L22.8965 9.81689ZM21.5 14.7022C22.2618 14.7022 22.857 15.3599 22.7812 16.1179L22.2822 21.1083C22.242 21.5101 21.9039 21.8161 21.5 21.8161C21.0962 21.8161 20.758 21.5101 20.7178 21.1083L20.2188 16.1179C20.143 15.3599 20.7382 14.7022 21.5 14.7022ZM21.5022 23.2389C22.288 23.2389 22.925 23.8759 22.925 24.6617C22.925 25.4475 22.288 26.0845 21.5022 26.0845C20.7164 26.0845 20.0794 25.4475 20.0794 24.6617C20.0794 23.8759 20.7164 23.2389 21.5022 23.2389Z" fill="#FF3D00"/>
</svg>
